<svg width="190" height="67" viewBox="0 0 190 67" fill="none" xmlns="http://www.w3.org/2000/svg">
<path d="M91.4595 40.895C88.5523 40.895 86.2489 40.1072 84.5494 38.5317C82.8498 36.9344 82 34.6586 82 31.7046V26.1904C82 23.2363 82.8498 20.9716 84.5494 19.3961C86.2489 17.7987 88.5523 17 91.4595 17C94.3443 17 96.5694 17.7768 98.1348 19.3304C99.7225 20.8621 100.516 22.9737 100.516 25.6652V25.8621H96.1557V25.5339C96.1557 24.1772 95.7643 23.0613 94.9816 22.186C94.2213 21.3107 93.0472 20.8731 91.4595 20.8731C89.8941 20.8731 88.6641 21.3435 87.7696 22.2845C86.8751 23.2254 86.4278 24.5055 86.4278 26.1247V31.7702C86.4278 33.3676 86.8751 34.6477 87.7696 35.6105C88.6641 36.5514 89.8941 37.0219 91.4595 37.0219C93.0472 37.0219 94.2213 36.5842 94.9816 35.709C95.7643 34.8118 96.1557 33.6958 96.1557 32.3611V31.7702H100.516V32.2298C100.516 34.9212 99.7225 37.0438 98.1348 38.5974C96.5694 40.1291 94.3443 40.895 91.4595 40.895Z" fill="black"/>
<path d="M112.175 40.895C110.52 40.895 109.033 40.5667 107.713 39.9103C106.394 39.2538 105.354 38.302 104.594 37.0547C103.834 35.8074 103.453 34.3085 103.453 32.558V32.0328C103.453 30.2823 103.834 28.7834 104.594 27.5361C105.354 26.2888 106.394 25.337 107.713 24.6805C109.033 24.0241 110.52 23.6958 112.175 23.6958C113.83 23.6958 115.317 24.0241 116.636 24.6805C117.956 25.337 118.995 26.2888 119.756 27.5361C120.516 28.7834 120.896 30.2823 120.896 32.0328V32.558C120.896 34.3085 120.516 35.8074 119.756 37.0547C118.995 38.302 117.956 39.2538 116.636 39.9103C115.317 40.5667 113.83 40.895 112.175 40.895ZM112.175 37.2188C113.472 37.2188 114.545 36.814 115.395 36.0044C116.245 35.1729 116.67 33.9912 116.67 32.4595V32.1313C116.67 30.5996 116.245 29.4289 115.395 28.6193C114.568 27.7877 113.494 27.372 112.175 27.372C110.878 27.372 109.804 27.7877 108.955 28.6193C108.105 29.4289 107.68 30.5996 107.68 32.1313V32.4595C107.68 33.9912 108.105 35.1729 108.955 36.0044C109.804 36.814 110.878 37.2188 112.175 37.2188Z" fill="black"/>
<path d="M124.798 40.4354V17.4595H129.024V40.4354H124.798Z" fill="black"/>
<path d="M143.704 40.895C142.206 40.895 141.054 40.6433 140.249 40.14C139.444 39.6368 138.851 39.0788 138.471 38.4661H137.867V40.4354H133.708V17.4595H137.934V26.0263H138.538C138.784 25.6324 139.108 25.2604 139.511 24.9103C139.936 24.5602 140.484 24.2757 141.155 24.0569C141.848 23.8162 142.698 23.6958 143.704 23.6958C145.046 23.6958 146.287 24.0241 147.427 24.6805C148.568 25.3151 149.485 26.256 150.178 27.5033C150.871 28.7505 151.218 30.2604 151.218 32.0328V32.558C151.218 34.3304 150.871 35.8403 150.178 37.0875C149.485 38.3348 148.568 39.2867 147.427 39.9431C146.287 40.5777 145.046 40.895 143.704 40.895ZM142.429 37.2845C143.726 37.2845 144.811 36.8796 145.683 36.07C146.555 35.2385 146.991 34.035 146.991 32.4595V32.1313C146.991 30.5558 146.555 29.3632 145.683 28.5536C144.833 27.7221 143.749 27.3063 142.429 27.3063C141.132 27.3063 140.048 27.7221 139.176 28.5536C138.303 29.3632 137.867 30.5558 137.867 32.1313V32.4595C137.867 34.035 138.303 35.2385 139.176 36.07C140.048 36.8796 141.132 37.2845 142.429 37.2845Z" fill="black"/>
<path d="M160.265 40.895C159.079 40.895 158.017 40.698 157.078 40.3042C156.139 39.8884 155.39 39.2976 154.83 38.5317C154.294 37.744 154.025 36.7921 154.025 35.6761C154.025 34.5602 154.294 33.6302 154.83 32.8862C155.39 32.1203 156.15 31.5514 157.111 31.1794C158.095 30.7856 159.214 30.5886 160.466 30.5886H165.028V29.6696C165.028 28.9037 164.782 28.2801 164.29 27.7987C163.798 27.2954 163.015 27.0438 161.942 27.0438C160.891 27.0438 160.108 27.2845 159.594 27.7659C159.079 28.2254 158.744 28.8271 158.587 29.5711L154.696 28.291C154.965 27.4595 155.39 26.7046 155.971 26.0263C156.575 25.326 157.369 24.7681 158.353 24.3523C159.359 23.9147 160.578 23.6958 162.009 23.6958C164.2 23.6958 165.934 24.2319 167.208 25.3042C168.483 26.3764 169.12 27.93 169.12 29.965V36.0372C169.12 36.6937 169.433 37.0219 170.06 37.0219H171.401V40.4354H168.584C167.756 40.4354 167.074 40.2385 166.537 39.8446C166.001 39.4508 165.732 38.9256 165.732 38.2691V38.2363H165.095C165.006 38.4989 164.804 38.849 164.491 39.2866C164.178 39.7024 163.686 40.0744 163.015 40.4026C162.344 40.7309 161.428 40.895 160.265 40.895ZM161.003 37.547C162.188 37.547 163.149 37.2298 163.887 36.5952C164.648 35.9387 165.028 35.0744 165.028 34.0022V33.674H160.768C159.985 33.674 159.37 33.8381 158.923 34.1663C158.476 34.4945 158.252 34.954 158.252 35.5449C158.252 36.1357 158.487 36.6171 158.956 36.9891C159.426 37.361 160.108 37.547 161.003 37.547Z" fill="black"/>
<path d="M175.844 47V43.3895H184.901C185.527 43.3895 185.841 43.0613 185.841 42.4048V38.302H185.237C185.058 38.674 184.778 39.0459 184.398 39.4179C184.018 39.7899 183.504 40.0963 182.855 40.337C182.207 40.5777 181.379 40.698 180.373 40.698C179.076 40.698 177.935 40.4136 176.951 39.8446C175.99 39.2538 175.241 38.4442 174.704 37.4158C174.167 36.3873 173.899 35.2057 173.899 33.8709V24.1554H178.125V33.5427C178.125 34.7681 178.427 35.6871 179.031 36.2998C179.657 36.9125 180.541 37.2188 181.681 37.2188C182.978 37.2188 183.984 36.8031 184.7 35.9716C185.416 35.1182 185.773 33.9365 185.773 32.4267V24.1554H190V43.3239C190 44.4398 189.665 45.326 188.994 45.9825C188.323 46.6608 187.428 47 186.31 47H175.844Z" fill="black"/>
<g filter="url(#filter0_d_83_2)">
<rect x="10" y="8" width="47" height="47" rx="2" fill="url(#paint0_linear_83_2)"/>
<path d="M33.8185 42.3682C31.2116 42.3682 29.1461 41.6463 27.622 40.2025C26.098 38.7386 25.3359 36.653 25.3359 33.9458V28.8924C25.3359 26.1852 26.098 24.1097 27.622 22.6658C29.1461 21.2019 31.2116 20.47 33.8185 20.47C36.4054 20.47 38.4007 21.1819 39.8044 22.6057C41.2282 24.0094 41.9401 25.9445 41.9401 28.4111V28.5916H38.0297V28.2908C38.0297 27.0475 37.6788 26.0247 36.9769 25.2226C36.2951 24.4205 35.2423 24.0194 33.8185 24.0194C32.4148 24.0194 31.3118 24.4506 30.5097 25.3129C29.7076 26.1751 29.3065 27.3483 29.3065 28.8322V34.006C29.3065 35.4699 29.7076 36.643 30.5097 37.5253C31.3118 38.3876 32.4148 38.8188 33.8185 38.8188C35.2423 38.8188 36.2951 38.4177 36.9769 37.6156C37.6788 36.7934 38.0297 35.7707 38.0297 34.5474V34.006H41.9401V34.4271C41.9401 36.8937 41.2282 38.8388 39.8044 40.2626C38.4007 41.6663 36.4054 42.3682 33.8185 42.3682Z" fill="white"/>
</g>
<defs>
<filter id="filter0_d_83_2" x="0" y="0" width="67" height="67" filterUnits="userSpaceOnUse" color-interpolation-filters="sRGB">
<feFlood flood-opacity="0" result="BackgroundImageFix"/>
<feColorMatrix in="SourceAlpha" type="matrix" values="0 0 0 0 0 0 0 0 0 0 0 0 0 0 0 0 0 0 127 0" result="hardAlpha"/>
<feOffset dy="2"/>
<feGaussianBlur stdDeviation="5"/>
<feComposite in2="hardAlpha" operator="out"/>
<feColorMatrix type="matrix" values="0 0 0 0 0 0 0 0 0 0 0 0 0 0 0 0 0 0 0.25 0"/>
<feBlend mode="normal" in2="BackgroundImageFix" result="effect1_dropShadow_83_2"/>
<feBlend mode="normal" in="SourceGraphic" in2="effect1_dropShadow_83_2" result="shape"/>
</filter>
<linearGradient id="paint0_linear_83_2" x1="10" y1="55" x2="65.2048" y2="35.3185" gradientUnits="userSpaceOnUse">
<stop stop-color="#ECB85B"/>
<stop offset="0.233568" stop-color="#FF4C00"/>
<stop offset="0.723437" stop-color="#B57CFF"/>
<stop offset="1" stop-color="#3DD2DD"/>
</linearGradient>
</defs>
</svg>
